<svg width="110" height="110" viewBox="0 0 110 110" fill="none" xmlns="http://www.w3.org/2000/svg">
<rect x="9" y="77" width="93" height="5" rx="2" stroke="#222222"/>
<path d="M26.1397 30.32C26.1904 29.8933 26.8096 29.8933 26.8603 30.32L27.285 33.8997C27.8335 38.5221 31.4779 42.1665 36.1002 42.715L39.6799 43.1397C40.1067 43.1904 40.1067 43.8096 39.6799 43.8603L36.1002 44.285C31.4779 44.8335 27.8335 48.4779 27.285 53.1002L26.8603 56.6799C26.8096 57.1067 26.1904 57.1067 26.1397 56.6799L25.715 53.1002C25.1665 48.4779 21.5221 44.8335 16.8997 44.285L13.32 43.8603C12.8933 43.8096 12.8933 43.1904 13.32 43.1397L16.8997 42.715C21.5221 42.1665 25.1665 38.5221 25.715 33.8997L26.1397 30.32Z" stroke="#222222"/>
<path fill-rule="evenodd" clip-rule="evenodd" d="M24.1023 48.7121C17.2035 56.3168 13 66.4114 13 77.4878H14C14 66.7811 18.0214 57.0136 24.6363 49.6135C24.4736 49.3031 24.2952 49.0023 24.1023 48.7121ZM33.5549 42.0693C40.0075 38.0005 47.6495 35.6463 55.8415 35.6463C78.9499 35.6463 97.6829 54.3794 97.6829 77.4878H98.6829C98.6829 53.8271 79.5022 34.6463 55.8415 34.6463C47.225 34.6463 39.2027 37.1901 32.4845 41.5675C32.8295 41.7547 33.1868 41.9225 33.5549 42.0693Z" fill="#222222"/>
<path d="M37.3265 19.1541C37.3509 18.9486 37.6491 18.9486 37.6735 19.1541L37.878 20.8777C38.142 23.1032 39.8968 24.858 42.1223 25.122L43.8459 25.3265C44.0514 25.3509 44.0514 25.6491 43.8459 25.6735L42.1223 25.878C39.8968 26.142 38.142 27.8968 37.878 30.1223L37.6735 31.8459C37.6491 32.0514 37.3509 32.0514 37.3265 31.8459L37.122 30.1223C36.858 27.8968 35.1032 26.142 32.8777 25.878L31.1541 25.6735C30.9486 25.6491 30.9486 25.3509 31.1541 25.3265L32.8777 25.122C35.1032 24.858 36.858 23.1032 37.122 20.8777L37.3265 19.1541Z" stroke="#222222"/>
<circle cx="55.5" cy="29.5" r="5" stroke="#222222"/>
</svg>
